<svg width="99" height="14" viewBox="0 0 99 14" fill="none" xmlns="http://www.w3.org/2000/svg">
<path d="M3.47266 10.1045C3.71419 10.1045 3.93294 10.0566 4.12891 9.96094C4.32943 9.86068 4.49349 9.70573 4.62109 9.49609C4.7487 9.2819 4.82161 9.00391 4.83984 8.66211H5.97461C5.95638 9.1543 5.83105 9.58724 5.59863 9.96094C5.37077 10.3301 5.06999 10.6195 4.69629 10.8291C4.32715 11.0342 3.91927 11.1367 3.47266 11.1367C2.99414 11.1367 2.57715 11.0592 2.22168 10.9043C1.87077 10.7493 1.5791 10.526 1.34668 10.2344C1.11882 9.93815 0.947917 9.5804 0.833984 9.16113C0.720052 8.7373 0.663086 8.25651 0.663086 7.71875V6.88477C0.663086 6.34701 0.720052 5.86849 0.833984 5.44922C0.947917 5.02539 1.11882 4.66764 1.34668 4.37598C1.5791 4.07975 1.87077 3.85417 2.22168 3.69922C2.57715 3.54427 2.99414 3.4668 3.47266 3.4668C3.97396 3.4668 4.4069 3.57389 4.77148 3.78809C5.14062 3.99772 5.42773 4.30306 5.63281 4.7041C5.84245 5.10059 5.95638 5.58138 5.97461 6.14648H4.83984C4.82161 5.7819 4.75553 5.47884 4.6416 5.2373C4.52767 4.99121 4.37272 4.80892 4.17676 4.69043C3.98079 4.56738 3.74609 4.50586 3.47266 4.50586C3.15365 4.50586 2.88932 4.56283 2.67969 4.67676C2.47461 4.78613 2.31283 4.94564 2.19434 5.15527C2.07585 5.36491 1.99154 5.61556 1.94141 5.90723C1.89583 6.19889 1.87305 6.52474 1.87305 6.88477V7.71875C1.87305 8.07878 1.89583 8.4069 1.94141 8.70312C1.99154 8.99479 2.07357 9.24544 2.1875 9.45508C2.30599 9.66471 2.47005 9.8265 2.67969 9.94043C2.88932 10.0498 3.15365 10.1045 3.47266 10.1045ZM11.0059 9.31836L12.9814 3.60352H14.1299L11.4229 11H10.5889L7.88867 3.60352H9.03711L11.0059 9.31836ZM8.68848 3.60352V11H7.48535V3.60352H8.68848ZM13.2822 11V3.60352H14.4922V11H13.2822ZM16.1738 7.65723V6.95312C16.1738 6.37891 16.2467 5.87533 16.3926 5.44238C16.5384 5.00488 16.7412 4.6403 17.001 4.34863C17.2607 4.05697 17.5638 3.83822 17.9102 3.69238C18.2565 3.54199 18.6279 3.4668 19.0244 3.4668C19.43 3.4668 19.806 3.54199 20.1523 3.69238C20.4987 3.83822 20.8018 4.05697 21.0615 4.34863C21.3258 4.6403 21.5309 5.00488 21.6768 5.44238C21.8226 5.87533 21.8955 6.37891 21.8955 6.95312V7.65723C21.8955 8.23145 21.8226 8.7373 21.6768 9.1748C21.5309 9.60775 21.3281 9.97005 21.0684 10.2617C20.8086 10.5534 20.5055 10.7721 20.1592 10.918C19.8128 11.0638 19.4391 11.1367 19.0381 11.1367C18.637 11.1367 18.2633 11.0638 17.917 10.918C17.5706 10.7721 17.2653 10.5534 17.001 10.2617C16.7412 9.97005 16.5384 9.60775 16.3926 9.1748C16.2467 8.7373 16.1738 8.23145 16.1738 7.65723ZM17.3838 6.95312V7.65723C17.3838 8.06283 17.4248 8.41829 17.5068 8.72363C17.5889 9.02897 17.7051 9.28418 17.8555 9.48926C18.0059 9.69434 18.1813 9.84928 18.3818 9.9541C18.5824 10.0544 18.8011 10.1045 19.0381 10.1045C19.3115 10.1045 19.5508 10.0544 19.7559 9.9541C19.9655 9.84928 20.1387 9.69434 20.2754 9.48926C20.4121 9.28418 20.5146 9.02897 20.583 8.72363C20.6514 8.41829 20.6855 8.06283 20.6855 7.65723V6.95312C20.6855 6.54753 20.6445 6.19434 20.5625 5.89355C20.4805 5.58822 20.3643 5.33301 20.2139 5.12793C20.0635 4.91829 19.8857 4.76335 19.6807 4.66309C19.4801 4.55827 19.2614 4.50586 19.0244 4.50586C18.792 4.50586 18.5755 4.55827 18.375 4.66309C18.1745 4.76335 17.999 4.91829 17.8486 5.12793C17.7028 5.33301 17.5889 5.58822 17.5068 5.89355C17.4248 6.19434 17.3838 6.54753 17.3838 6.95312ZM25.9629 3.60352V11H24.7529V3.60352H25.9629ZM27.9795 3.60352V4.62891H22.7637V3.60352H27.9795ZM30.4746 5.02539V13.8438H29.2646V3.60352H30.3652L30.4746 5.02539ZM34.6104 6.9668V7.65723C34.6104 8.24056 34.5557 8.75098 34.4463 9.18848C34.3415 9.62142 34.1842 9.98372 33.9746 10.2754C33.7695 10.5625 33.5166 10.779 33.2158 10.9248C32.915 11.0661 32.571 11.1367 32.1836 11.1367C31.7962 11.1367 31.459 11.0638 31.1719 10.918C30.8893 10.7676 30.6501 10.5511 30.4541 10.2686C30.2627 9.986 30.11 9.64648 29.9961 9.25C29.8867 8.84896 29.8115 8.40007 29.7705 7.90332V6.85059C29.8115 6.3265 29.8867 5.8571 29.9961 5.44238C30.1055 5.02311 30.2559 4.66764 30.4473 4.37598C30.6432 4.07975 30.8825 3.85417 31.165 3.69922C31.4521 3.54427 31.7871 3.4668 32.1699 3.4668C32.5664 3.4668 32.915 3.53516 33.2158 3.67188C33.5212 3.80859 33.7764 4.02051 33.9814 4.30762C34.1911 4.59017 34.3483 4.95247 34.4531 5.39453C34.5579 5.83203 34.6104 6.35612 34.6104 6.9668ZM33.4004 7.65723V6.9668C33.4004 6.55664 33.3685 6.19889 33.3047 5.89355C33.2454 5.58822 33.1497 5.33529 33.0176 5.13477C32.8854 4.93424 32.7191 4.78385 32.5186 4.68359C32.318 4.58333 32.0765 4.5332 31.7939 4.5332C31.5524 4.5332 31.3382 4.58333 31.1514 4.68359C30.9691 4.78385 30.8118 4.92057 30.6797 5.09375C30.5475 5.26237 30.4382 5.45605 30.3516 5.6748C30.265 5.889 30.2012 6.1123 30.1602 6.34473V8.41602C30.2376 8.70768 30.3402 8.9834 30.4678 9.24316C30.5954 9.49837 30.7663 9.70573 30.9805 9.86523C31.1992 10.0247 31.4749 10.1045 31.8076 10.1045C32.0856 10.1045 32.3249 10.0544 32.5254 9.9541C32.7259 9.85384 32.89 9.70345 33.0176 9.50293C33.1497 9.29785 33.2454 9.04264 33.3047 8.7373C33.3685 8.42741 33.4004 8.06738 33.4004 7.65723ZM38.8145 11.1367C38.3724 11.1367 37.9736 11.0706 37.6182 10.9385C37.2627 10.8063 36.9596 10.6058 36.709 10.3369C36.4583 10.0635 36.2669 9.7194 36.1348 9.30469C36.0026 8.88997 35.9365 8.40007 35.9365 7.83496V7.00098C35.9365 6.34928 36.0117 5.79785 36.1621 5.34668C36.3171 4.89551 36.5244 4.5332 36.7842 4.25977C37.0439 3.98177 37.3379 3.78125 37.666 3.6582C37.9941 3.5306 38.3314 3.4668 38.6777 3.4668C39.1426 3.4668 39.5391 3.54199 39.8672 3.69238C40.1953 3.84277 40.4619 4.06608 40.667 4.3623C40.8721 4.65853 41.0225 5.02311 41.1182 5.45605C41.2184 5.889 41.2686 6.38802 41.2686 6.95312V7.65723H36.6475V6.625H40.0586V6.4541C40.0404 6.07129 39.988 5.73405 39.9014 5.44238C39.8193 5.15072 39.6826 4.92285 39.4912 4.75879C39.2998 4.59017 39.0286 4.50586 38.6777 4.50586C38.4544 4.50586 38.2471 4.5446 38.0557 4.62207C37.8688 4.69499 37.707 4.82487 37.5703 5.01172C37.4382 5.19401 37.3333 5.44694 37.2559 5.77051C37.1829 6.09408 37.1465 6.50423 37.1465 7.00098V7.83496C37.1465 8.23145 37.1829 8.57324 37.2559 8.86035C37.3333 9.1429 37.445 9.3776 37.5908 9.56445C37.7412 9.74674 37.9235 9.88346 38.1377 9.97461C38.3564 10.0612 38.6048 10.1045 38.8828 10.1045C39.2884 10.1045 39.6234 10.027 39.8877 9.87207C40.152 9.71257 40.3822 9.50977 40.5781 9.26367L41.2139 10.0225C41.0817 10.2093 40.9085 10.3893 40.6943 10.5625C40.4847 10.7311 40.2249 10.8701 39.915 10.9795C39.6097 11.0843 39.2428 11.1367 38.8145 11.1367ZM45.3086 3.60352V11H44.0986V3.60352H45.3086ZM47.3252 3.60352V4.62891H42.1094V3.60352H47.3252ZM49.6221 6.14648H51.4268C51.9372 6.14648 52.3656 6.2513 52.7119 6.46094C53.0583 6.66602 53.3203 6.95085 53.498 7.31543C53.6758 7.67546 53.7646 8.08561 53.7646 8.5459C53.7646 8.8877 53.7145 9.20898 53.6143 9.50977C53.514 9.80599 53.3636 10.0658 53.1631 10.2891C52.9671 10.5124 52.7233 10.6878 52.4316 10.8154C52.1445 10.9385 51.8096 11 51.4268 11H48.7197V3.60352H49.9229V9.96094H51.4268C51.7093 9.96094 51.9326 9.89486 52.0967 9.7627C52.2607 9.63053 52.377 9.45964 52.4453 9.25C52.5182 9.04036 52.5547 8.82161 52.5547 8.59375C52.5547 8.37044 52.5182 8.15169 52.4453 7.9375C52.377 7.72331 52.2607 7.54557 52.0967 7.4043C51.9326 7.25846 51.7093 7.18555 51.4268 7.18555H49.6221V6.14648ZM58.2695 7.65723V6.95312C58.2695 6.37891 58.3424 5.87533 58.4883 5.44238C58.6341 5.00488 58.8369 4.6403 59.0967 4.34863C59.3564 4.05697 59.6595 3.83822 60.0059 3.69238C60.3522 3.54199 60.7236 3.4668 61.1201 3.4668C61.5257 3.4668 61.9017 3.54199 62.248 3.69238C62.5944 3.83822 62.8975 4.05697 63.1572 4.34863C63.4215 4.6403 63.6266 5.00488 63.7725 5.44238C63.9183 5.87533 63.9912 6.37891 63.9912 6.95312V7.65723C63.9912 8.23145 63.9183 8.7373 63.7725 9.1748C63.6266 9.60775 63.4238 9.97005 63.1641 10.2617C62.9043 10.5534 62.6012 10.7721 62.2549 10.918C61.9085 11.0638 61.5348 11.1367 61.1338 11.1367C60.7327 11.1367 60.359 11.0638 60.0127 10.918C59.6663 10.7721 59.361 10.5534 59.0967 10.2617C58.8369 9.97005 58.6341 9.60775 58.4883 9.1748C58.3424 8.7373 58.2695 8.23145 58.2695 7.65723ZM59.4795 6.95312V7.65723C59.4795 8.06283 59.5205 8.41829 59.6025 8.72363C59.6846 9.02897 59.8008 9.28418 59.9512 9.48926C60.1016 9.69434 60.277 9.84928 60.4775 9.9541C60.6781 10.0544 60.8968 10.1045 61.1338 10.1045C61.4072 10.1045 61.6465 10.0544 61.8516 9.9541C62.0612 9.84928 62.2344 9.69434 62.3711 9.48926C62.5078 9.28418 62.6104 9.02897 62.6787 8.72363C62.7471 8.41829 62.7812 8.06283 62.7812 7.65723V6.95312C62.7812 6.54753 62.7402 6.19434 62.6582 5.89355C62.5762 5.58822 62.46 5.33301 62.3096 5.12793C62.1592 4.91829 61.9814 4.76335 61.7764 4.66309C61.5758 4.55827 61.3571 4.50586 61.1201 4.50586C60.8877 4.50586 60.6712 4.55827 60.4707 4.66309C60.2702 4.76335 60.0947 4.91829 59.9443 5.12793C59.7985 5.33301 59.6846 5.58822 59.6025 5.89355C59.5205 6.19434 59.4795 6.54753 59.4795 6.95312ZM69.7607 6.80957V7.83496H66.623V6.80957H69.7607ZM66.8691 3.60352V11H65.6592V3.60352H66.8691ZM70.7451 3.60352V11H69.5352V3.60352H70.7451ZM76.8018 3.60352V4.64941H73.8555V3.60352H76.8018ZM77.8818 3.60352V11H76.6787V3.60352H77.8818ZM73.5684 3.60352H74.7783L74.6074 7.17188C74.5801 7.72331 74.5345 8.21094 74.4707 8.63477C74.4115 9.05404 74.3271 9.41406 74.2178 9.71484C74.113 10.0156 73.9808 10.2617 73.8213 10.4531C73.6663 10.64 73.4795 10.779 73.2607 10.8701C73.0465 10.9567 72.7982 11 72.5156 11H72.1533V9.88574L72.3926 9.86523C72.5521 9.85156 72.6888 9.80599 72.8027 9.72852C72.9212 9.65104 73.0169 9.53711 73.0898 9.38672C73.1673 9.23177 73.2288 9.03353 73.2744 8.79199C73.3245 8.55046 73.3633 8.26335 73.3906 7.93066C73.418 7.59798 73.4385 7.21061 73.4521 6.76855L73.5684 3.60352ZM83.4463 9.73535V5.72266C83.4463 5.43099 83.4007 5.19629 83.3096 5.01855C83.223 4.84082 83.0908 4.71094 82.9131 4.62891C82.7399 4.54688 82.5212 4.50586 82.2568 4.50586C82.0016 4.50586 81.7806 4.55827 81.5938 4.66309C81.4115 4.7679 81.2702 4.9069 81.1699 5.08008C81.0742 5.25326 81.0264 5.44466 81.0264 5.6543H79.8164C79.8164 5.38997 79.8734 5.12793 79.9873 4.86816C80.1058 4.6084 80.2744 4.3737 80.4932 4.16406C80.7119 3.94987 80.974 3.78125 81.2793 3.6582C81.5892 3.5306 81.9355 3.4668 82.3184 3.4668C82.7741 3.4668 83.1774 3.54199 83.5283 3.69238C83.8792 3.83822 84.1549 4.07747 84.3555 4.41016C84.556 4.74284 84.6562 5.1849 84.6562 5.73633V9.38672C84.6562 9.63281 84.6745 9.89486 84.7109 10.1729C84.752 10.4508 84.8089 10.6901 84.8818 10.8906V11H83.6309C83.5716 10.8542 83.526 10.6605 83.4941 10.4189C83.4622 10.1729 83.4463 9.94499 83.4463 9.73535ZM83.6377 6.51562L83.6514 7.4043H82.8105C82.5234 7.4043 82.2614 7.4362 82.0244 7.5C81.792 7.5638 81.5915 7.65723 81.4229 7.78027C81.2542 7.89876 81.1243 8.04688 81.0332 8.22461C80.9466 8.40234 80.9033 8.60514 80.9033 8.83301C80.9033 9.12923 80.9443 9.36621 81.0264 9.54395C81.1084 9.71712 81.2314 9.84245 81.3955 9.91992C81.5596 9.9974 81.7669 10.0361 82.0176 10.0361C82.3229 10.0361 82.5918 9.96549 82.8242 9.82422C83.0566 9.68294 83.2367 9.51204 83.3643 9.31152C83.4964 9.111 83.5579 8.92415 83.5488 8.75098L83.8154 9.31836C83.7972 9.49609 83.738 9.68978 83.6377 9.89941C83.542 10.1045 83.4076 10.3027 83.2344 10.4941C83.0612 10.681 82.8561 10.8359 82.6191 10.959C82.3867 11.0775 82.1247 11.1367 81.833 11.1367C81.4046 11.1367 81.0286 11.0547 80.7051 10.8906C80.3861 10.7266 80.1377 10.485 79.96 10.166C79.7822 9.84701 79.6934 9.4528 79.6934 8.9834C79.6934 8.62793 79.7549 8.2998 79.8779 7.99902C80.001 7.69824 80.1833 7.43848 80.4248 7.21973C80.6663 6.99642 80.9694 6.82324 81.334 6.7002C81.7031 6.57715 82.1292 6.51562 82.6123 6.51562H83.6377ZM87.8486 8.99707L90.5283 3.60352H91.7383V11H90.5283V5.60645L87.8486 11H86.6455V3.60352H87.8486V8.99707ZM90.207 0.923828H91.2324C91.2324 1.2793 91.1504 1.59603 90.9863 1.87402C90.8223 2.14746 90.5876 2.36165 90.2822 2.5166C89.9769 2.67155 89.6146 2.74902 89.1953 2.74902C88.5618 2.74902 88.0605 2.5804 87.6914 2.24316C87.3268 1.90137 87.1445 1.46159 87.1445 0.923828H88.1699C88.1699 1.19271 88.2474 1.42969 88.4023 1.63477C88.5573 1.83984 88.8216 1.94238 89.1953 1.94238C89.5599 1.94238 89.8197 1.83984 89.9746 1.63477C90.1296 1.42969 90.207 1.19271 90.207 0.923828ZM97.8838 6.80957V7.83496H94.7461V6.80957H97.8838ZM94.9922 3.60352V11H93.7822V3.60352H94.9922ZM98.8682 3.60352V11H97.6582V3.60352H98.8682Z" fill="white"/>
</svg>
